<?xml version="1.0" encoding="UTF-8"?>
<svg id="Layer_1" data-name="Layer 1" xmlns="http://www.w3.org/2000/svg" viewBox="0 0 194.11 194.11">
  <defs>
    <style>
      .cls-1, .cls-2, .cls-3 {
        stroke-width: 0px;
      }

      .cls-2 {
        fill: #ee3a24;
      }

      .cls-3 {
        fill: #fff;
      }
    </style>
  </defs>
  <path class="cls-3" d="M97.06.25c53.38,0,96.81,43.43,96.81,96.81s-43.43,96.81-96.81,96.81S.25,150.44.25,97.06,43.68.25,97.06.25ZM189.87,97.06c0-51.18-41.64-92.81-92.81-92.81S4.24,45.88,4.24,97.06s41.64,92.81,92.81,92.81,92.81-41.64,92.81-92.81Z"/>
  <path class="cls-1" d="M97.06,4.24c51.18,0,92.81,41.64,92.81,92.81s-41.64,92.81-92.81,92.81S4.24,148.23,4.24,97.06,45.88,4.24,97.06,4.24ZM177.96,96.38c0-44.46-36.17-80.63-80.63-80.63S16.71,51.92,16.71,96.38s36.17,80.63,80.63,80.63,80.63-36.17,80.63-80.63Z"/>
  <path class="cls-3" d="M97.33,15.76c44.46,0,80.63,36.17,80.63,80.63s-36.17,80.63-80.63,80.63S16.71,140.84,16.71,96.38,52.87,15.76,97.33,15.76ZM170,125.64c3.66-9.05,5.67-18.92,5.67-29.26,0-37.58-26.61-69.07-61.97-76.62,14.84,6.65,25.21,21.6,25.21,38.95,0,7.57-1.98,14.69-5.44,20.86l.12-.07,11.3,18.67,9.89-2.03c.64-.13,1.29.19,1.58.79l13.64,28.73ZM170.11,130.86l-15.62-32.16-10.37,2.48s-.05,0-.07,0l-13.2-21.53c3.71-6.11,5.85-13.28,5.85-20.95,0-22.26-18.04-40.36-40.22-40.36s-40.22,18.11-40.22,40.36c0,8.01,2.34,15.49,6.37,21.77l-12.65,20.63s-.08.01-.12.02l-10.34-2.48-15.27,31.45,3.11,1.51s.03.05.04.07l.02-.05.42.21,13.87-28.56,10.13,2.43,13.31-21.72c2.39,2.97,5.19,5.6,8.31,7.79l-20.24,71.23,4.39,1.25,8.13-28.61s.03-.02.04-.03l64.01.23s.09.08.12.12l7.78,27.54,4.39-1.24-20.39-72.15c2.49-2.01,4.73-4.32,6.68-6.86l13.79,22.5,10.13-2.43,14.21,29.27.34-.17h0s0,0,.01,0l3.23-1.57ZM165.16,135.55l-13.67-29.25-9.77,2.01c-.59.12-1.19-.14-1.5-.65l-12.38-20.27c-1.07,1.18-2.2,2.29-3.39,3.34l19.44,68.63c8.61-6.38,15.88-14.49,21.28-23.81ZM135.69,164.66l-7.9-26.3-60.13-.14-7.91,26.88c11.16,6.13,23.97,9.63,37.58,9.63s27.01-3.67,38.36-10.07ZM51.71,160.03l19.01-67.46c-1.8-1.38-3.49-2.91-5.04-4.56l-11.96,19.58c-.31.51-.91.77-1.5.65l-9.77-2.01-13.36,28.58c5.63,9.96,13.37,18.57,22.62,25.22ZM54.03,58.71c0-16.67,9.58-31.13,23.5-38.13C43.88,29.37,18.99,60.02,18.99,96.38c0,10.01,1.89,19.58,5.33,28.39l13.26-27.91c.28-.59.93-.92,1.58-.79l9.89,2.03,10.82-17.87c-3.7-6.32-5.83-13.68-5.83-21.53Z"/>
  <path class="cls-1" d="M175.68,96.38c0,10.34-2.02,20.21-5.67,29.26l-13.64-28.73c-.28-.59-.93-.92-1.58-.79l-9.89,2.03-11.3-18.67-.12.07c3.46-6.17,5.44-13.28,5.44-20.86,0-17.35-10.37-32.29-25.21-38.95,35.37,7.55,61.97,39.03,61.97,76.62Z"/>
  <path class="cls-3" d="M154.49,98.7l15.62,32.16-3.23,1.57c.57-1.09,1.11-2.19,1.62-3.31l-14.24-29.97-9.78,2.01c-.12.02-.24.03-.36.03l10.37-2.48Z"/>
  <path class="cls-2" d="M154.26,99.15l14.24,29.97c-.52,1.12-1.06,2.22-1.62,3.31h-.02s-13.26-28.36-13.26-28.36c-.24-.51-.75-.82-1.3-.82-.09,0-.19,0-.28.03l-9.89,2.03-12.35-20.22h0s-1.22-2.06-1.22-2.06c.72-.95,1.39-1.93,2.03-2.95l1.29,2.11s0,0,0,0l11.09,18.32c.24.39.63.63,1.07.68v.02s.07-.01.07-.01c.12,0,.24,0,.36-.03l9.78-2.01Z"/>
  <path class="cls-3" d="M166.86,132.44l-.34.17-14.21-29.27v-.09c.55,0,1.06.31,1.3.82l13.26,28.37Z"/>
  <path class="cls-1" d="M151.49,106.3l13.67,29.25c-5.4,9.32-12.66,17.42-21.28,23.81l-19.44-68.63c1.19-1.05,2.32-2.17,3.39-3.34l12.38,20.27c.31.51.91.77,1.5.65l9.77-2.01Z"/>
  <path class="cls-3" d="M152.3,103.25v.09s-10.13,2.43-10.13,2.43l-13.79-22.5c.06-.08.12-.16.18-.24l1.22,2.06h0s12.35,20.22,12.35,20.22l9.89-2.03c.09-.02.19-.03.28-.03Z"/>
  <path class="cls-3" d="M130.85,79.65l13.2,21.53c-.44-.05-.84-.29-1.07-.68l-11.09-18.32s0,0,0,0l-1.29-2.11c.09-.14.18-.29.26-.43Z"/>
  <path class="cls-3" d="M121.7,90.12l20.39,72.15-4.39,1.24-7.78-27.54c.14.15.25.34.31.55l8,26.65c1.08-.66,2.15-1.34,3.19-2.06l-19.38-68.41s0,0,0,0l-.69-2.3c.12-.09.24-.19.35-.28Z"/>
  <path class="cls-2" d="M122.04,92.7l19.38,68.41c-1.04.71-2.11,1.39-3.19,2.06l-8-26.65c-.06-.21-.17-.39-.31-.55l-.03-.12h2.46s.02-4.56.02-4.56h-3.47s0-.02,0-.03l-9.63-36.61s0,0,0,0v-.04s-.18-.64-.18-.64h-.01s-.45-1.59-.45-1.59c.94-.62,1.85-1.28,2.73-1.98l.69,2.3s0,0,0,0Z"/>
  <path class="cls-1" d="M127.8,138.35l7.9,26.3c-11.35,6.4-24.43,10.07-38.36,10.07s-26.41-3.5-37.58-9.63l7.91-26.88,60.13.14Z"/>
  <path class="cls-2" d="M130.82,79.59c3.69-6.1,5.82-13.24,5.82-20.88,0-22.25-18.02-40.35-40.16-40.35s-40.16,18.1-40.16,40.35c0,.32,0,.64.01.96,0,.06,0,.11,0,.17,0,.2.01.4.02.6,0,.05,0,.11,0,.16,0,.13.01.25.02.38,0,.12.01.24.02.36,0,.02,0,.03,0,.05,0,.11.02.23.02.34,0,.06,0,.12.01.19.01.19.03.37.05.56.61,6.57,2.79,12.69,6.16,17.97l-.02.03c-4.03-6.29-6.37-13.76-6.37-21.77,0-22.26,18.04-40.36,40.22-40.36s40.22,18.11,40.22,40.36c0,7.67-2.14,14.84-5.85,20.95l-.04-.06Z"/>
  <path class="cls-2" d="M136.63,58.71c0,7.64-2.13,14.79-5.82,20.88l-.18-.3-.38.24-.19-.3-2.78,1.65.2.35-.26.16,1.12,1.83c-1.94,2.55-4.18,4.85-6.66,6.87l-.06-.21-.41.11-3.99,1.13.51,1.8c-5.92,3.73-12.87,5.96-20.32,6.13-.13,0-.25,0-.38,0-.08,0-.16,0-.23,0-.04,0-.08,0-.12,0-.07,0-.14,0-.21,0-.09,0-.17,0-.26,0-.01,0-.02,0-.03,0-.08,0-.15,0-.23,0h-.01c-.08,0-.17,0-.25,0-.17,0-.34,0-.52-.01-.08,0-.16,0-.23,0,0,0-.02,0-.02,0-.52-.02-1.03-.05-1.54-.09-.34-.03-.68-.06-1.02-.09-.17-.02-.34-.04-.5-.05-.44-.05-.87-.11-1.31-.17-.05,0-.09-.01-.14-.02-.03,0-.06,0-.1-.01-4.58-.71-8.9-2.2-12.83-4.33l.36-1.28-4.39-1.25v.03c-3.12-2.2-5.92-4.83-8.3-7.8l1.25-2.04-3.4-2.09-.37.6c-3.37-5.28-5.56-11.39-6.17-17.96-.02-.19-.03-.37-.05-.56,0-.06,0-.12-.01-.19,0-.11-.02-.23-.02-.34,0-.02,0-.03,0-.05,0-.12-.01-.24-.02-.36,0-.13-.01-.25-.02-.38,0-.05,0-.11,0-.16,0-.2-.02-.4-.02-.6,0-.06,0-.11,0-.17,0-.32-.01-.64-.01-.96,0-22.25,18.02-40.35,40.16-40.35s40.16,18.1,40.16,40.35ZM133.85,58.7c0-6.97-1.9-13.5-5.21-19.09-.03-.05-.06-.1-.09-.15-6.54-10.99-18.51-18.37-32.16-18.37-20.64,0-37.44,16.87-37.44,37.6s16.8,37.59,37.44,37.59c10.51,0,20.02-4.37,26.82-11.39.09-.09.18-.19.27-.28,6.42-6.74,10.37-15.87,10.37-25.91Z"/>
  <path class="cls-2" d="M132.36,131.3l-.02,4.56h-2.46s-1.05-3.72-1.05-3.72c.11-.27.13-.57.05-.86h3.47Z"/>
  <path class="cls-3" d="M128.64,39.6c3.3,5.6,5.19,12.12,5.19,19.08,0,10.04-3.94,19.17-10.35,25.92-.09.09-.18.19-.27.28-6.79,6.98-16.26,11.32-26.73,11.32-20.61,0-37.37-16.83-37.37-37.51s16.76-37.51,37.37-37.51c13.6,0,25.53,7.33,32.07,18.27.03.05.06.1.09.15ZM131.55,58.69c0-19.47-15.77-35.31-35.16-35.31s-35.16,15.84-35.16,35.31,15.77,35.31,35.16,35.31,35.16-15.84,35.16-35.31Z"/>
  <path class="cls-2" d="M130.82,79.59l.04.06c-.09.14-.17.29-.26.43l-.03-.06c.09-.14.18-.29.26-.43Z"/>
  <path class="cls-2" d="M130.63,79.29l.18.3c-.09.14-.17.29-.26.43l-.3-.49.38-.24Z"/>
  <path class="cls-2" d="M130.55,80.02l.03.06c-.63,1.01-1.31,2-2.03,2.95l-.03-.05-1.04-1.76,2.76-1.69.3.49Z"/>
  <polygon class="cls-2" points="130.06 79.23 130.25 79.53 127.49 81.22 127.29 80.87 130.06 79.23"/>
  <path class="cls-2" d="M128.83,132.14l1.05,3.71h-.09c-.25-.22-.58-.35-.93-.35l-62.26-.14h0c-.3,0-.58.09-.82.26h-.03l1.21-4.27c.03.26.12.51.29.72.27.35.68.55,1.12.56l59.12.43h.01c.44,0,.86-.2,1.13-.55.09-.11.15-.23.2-.36Z"/>
  <path class="cls-3" d="M129.79,135.85l-64.01-.23c.23-.16.52-.26.82-.26h0l62.26.14c.35,0,.68.13.93.35Z"/>
  <path class="cls-3" d="M128.89,131.28c.07.29.05.59-.05.86l-.24-.86h.3Z"/>
  <path class="cls-3" d="M128.88,131.27s0,.01,0,.02h-.3s-10.84-38.34-10.84-38.34c.29-.18.58-.37.86-.56l.45,1.59h.01s.17.63.17.63v.04s.01,0,.01,0l9.63,36.61Z"/>
  <path class="cls-1" d="M96.39,23.37c19.39,0,35.16,15.84,35.16,35.31s-15.77,35.31-35.16,35.31-35.16-15.84-35.16-35.31,15.77-35.31,35.16-35.31Z"/>
  <path class="cls-3" d="M128.59,131.28l.24.86c-.05.13-.12.25-.2.36-.27.35-.69.55-1.13.55h-.01l-59.12-.43c-.44,0-.85-.21-1.12-.56-.16-.21-.26-.46-.29-.72l.08-.29,61.54.22Z"/>
  <path class="cls-3" d="M117.76,92.94l10.84,38.34-61.54-.22,10.45-36.78c3.09,1.66,6.41,2.94,9.91,3.75.27.06.54.12.82.18.22.05.43.09.65.13h0c1.02.2,2.05.35,3.09.47.16.02.33.04.49.05.06,0,.11.01.17.02.11.01.22.02.33.03.17.01.33.03.5.04.11,0,.21.02.32.02.01,0,.02,0,.03,0,.05,0,.1,0,.15,0,.06,0,.11,0,.17.01.06,0,.11,0,.17,0,.06,0,.11,0,.17,0,.12,0,.23.01.35.02.05,0,.1,0,.15,0,.06,0,.11,0,.17,0,.04,0,.07,0,.11,0,.07,0,.14,0,.21,0,.09,0,.18,0,.27,0,0,0,.02,0,.03,0,.13,0,.27,0,.4,0,.02,0,.04,0,.06,0,.01,0,.02,0,.03,0,.09,0,.17,0,.26,0,.07,0,.14,0,.21,0,.04,0,.08,0,.12,0,.08,0,.16,0,.23,0,.13,0,.25,0,.38,0,7.45-.17,14.4-2.39,20.33-6.11ZM125.65,130.19l-8.95-34.02c-6.02,3.3-12.91,5.17-20.23,5.17-6.37,0-12.42-1.42-17.85-3.96l-8.39,32.4,55.43.4Z"/>
  <path class="cls-2" d="M128.53,82.98l.03.05c-.06.08-.12.16-.18.24l-.03-.04c.06-.08.12-.16.18-.24Z"/>
  <path class="cls-2" d="M127.49,81.22l1.04,1.76c-.06.08-.12.16-.18.24l-1.12-1.83.26-.16Z"/>
  <path class="cls-2" d="M128.35,83.22l.03.04c-1.95,2.54-4.19,4.85-6.68,6.86v-.04c2.47-2.02,4.71-4.32,6.65-6.87Z"/>
  <path class="cls-1" d="M116.7,96.17l8.95,34.02-55.43-.4,8.39-32.4c5.43,2.54,11.48,3.96,17.85,3.96,7.32,0,14.22-1.88,20.23-5.17Z"/>
  <path class="cls-2" d="M128.55,39.46c-6.54-10.93-18.47-18.27-32.07-18.27-20.61,0-37.37,16.83-37.37,37.51s16.76,37.51,37.37,37.51c10.46,0,19.94-4.34,26.73-11.32-6.81,7.02-16.32,11.39-26.82,11.39-20.64,0-37.44-16.86-37.44-37.59s16.8-37.6,37.44-37.6c13.65,0,25.62,7.38,32.16,18.37Z"/>
  <path class="cls-2" d="M121.69,90.09v.04c-.11.09-.22.19-.34.28v-.03c.11-.09.23-.19.34-.28Z"/>
  <path class="cls-2" d="M121.63,89.87l.06.21c-.12.1-.23.19-.35.28l-.11-.37v-.02s.4-.11.4-.11Z"/>
  <path class="cls-2" d="M121.34,90.37v.03c-.87.7-1.78,1.36-2.72,1.98v-.03s-.05-.16-.05-.16c1.01-.63,1.71-1.48,2.66-2.2l.11.37Z"/>
  <path class="cls-2" d="M121.22,89.99v.02c-.95.72-1.65,1.57-2.66,2.2l.04.16c-.28.19-.57.38-.86.56l-.51-1.8,3.99-1.13Z"/>
  <path class="cls-2" d="M118.61,92.36v.03c-.28.19-.56.37-.85.56v-.02c.28-.18.57-.37.85-.56Z"/>
  <path class="cls-2" d="M117.75,92.92v.02c-5.92,3.72-12.87,5.94-20.32,6.11,7.45-.18,14.4-2.4,20.32-6.13Z"/>
  <path class="cls-2" d="M97.43,99.05c-.13,0-.25,0-.38,0,.13,0,.25,0,.38,0Z"/>
  <path class="cls-2" d="M96.69,99.06s.08,0,.12,0c-.04,0-.08,0-.12,0Z"/>
  <path class="cls-2" d="M96.22,99.06s-.02,0-.03,0c.01,0,.02,0,.03,0Z"/>
  <path class="cls-3" d="M95.19,99.04s.03,0,.04,0c-.04,0-.07,0-.11,0,.02,0,.04,0,.07,0Z"/>
  <path class="cls-3" d="M94.93,99.03s.02,0,.02,0c-.05,0-.1,0-.15,0,.04,0,.09,0,.13,0Z"/>
  <path class="cls-3" d="M94.29,99c.06,0,.11,0,.17,0-.06,0-.11,0-.17,0Z"/>
  <path class="cls-3" d="M94.12,98.99h.17c-.06,0-.11,0-.17,0Z"/>
  <path class="cls-3" d="M93.8,98.97s.1,0,.15,0c-.05,0-.1,0-.15,0Z"/>
  <path class="cls-3" d="M93.77,98.97c-.11,0-.21-.01-.32-.02.11,0,.21.02.32.02Z"/>
  <path class="cls-3" d="M93.39,98.94s.04,0,.06,0c-.17-.01-.33-.03-.5-.04.15.01.29.02.44.04Z"/>
  <path class="cls-3" d="M92.96,98.91c-.11,0-.22-.02-.33-.03.11.01.22.02.33.03Z"/>
  <path class="cls-3" d="M92.38,98.85s.06,0,.08,0c-.16-.02-.33-.03-.49-.05.14.02.27.03.41.04Z"/>
  <path class="cls-3" d="M91.87,98.8s.06,0,.09.01c-1.04-.12-2.07-.27-3.09-.47.48.09.97.18,1.45.25.03,0,.06.01.1.01l.14.02c.43.06.87.12,1.31.17Z"/>
  <path class="cls-2" d="M90.33,98.59s.06.01.1.01c-.03,0-.06,0-.1-.01Z"/>
  <path class="cls-2" d="M90.33,98.59c-.49-.08-.97-.16-1.45-.25h0c-.22-.04-.43-.09-.65-.13-.27-.06-.55-.12-.82-.18-3.5-.81-6.82-2.09-9.91-3.76h0c3.93,2.12,8.25,3.61,12.83,4.32Z"/>
  <path class="cls-3" d="M88.88,98.34c-.22-.04-.43-.09-.65-.13.22.05.43.09.65.13Z"/>
  <path class="cls-2" d="M77.5,94.27c3.08,1.67,6.41,2.94,9.91,3.76-3.5-.81-6.82-2.08-9.91-3.75h0Z"/>
  <path class="cls-2" d="M77.87,92.98l-.36,1.28c-.3-.16-.59-.33-.89-.49h0c-.95-.53-1.87-1.12-2.76-1.73h0c-.13-.1-.26-.19-.38-.28v-.03s4.4,1.25,4.4,1.25Z"/>
  <path class="cls-2" d="M77.5,94.26h0c-.3-.15-.59-.32-.89-.49h0c.29.16.59.33.89.49Z"/>
  <path class="cls-2" d="M77.5,94.27h0c-.3-.15-.59-.32-.89-.49h0c.29.16.59.33.89.49Z"/>
  <path class="cls-3" d="M77.5,94.28l-10.45,36.78h-.08c0-.07.02-.15.04-.22l9.22-35.59h0s.39-1.46.39-1.46c.29.17.59.33.89.49Z"/>
  <path class="cls-2" d="M76.62,93.78h0c-.95-.53-1.87-1.11-2.77-1.73h0c.9.61,1.82,1.19,2.76,1.73Z"/>
  <path class="cls-2" d="M76.62,93.79l-.39,1.46h0s-9.22,35.59-9.22,35.59c-.02.07-.03.15-.04.22h-3.78s-.02,4.55-.02,4.55h2.58s0,.04,0,.04c-.24.18-.42.44-.51.74l-8.02,27.25c-1.02-.61-2.03-1.24-3.02-1.89l19-67.41s0,0,0,0l.66-2.29c.9.62,1.82,1.19,2.77,1.74Z"/>
  <path class="cls-2" d="M73.85,92.03h0c-.13-.08-.26-.17-.38-.26h0c.13.08.26.17.38.26Z"/>
  <path class="cls-2" d="M73.85,92.04h0c-.13-.08-.26-.17-.38-.26h0c.13.08.26.17.38.26Z"/>
  <path class="cls-3" d="M73.85,92.05l-.66,2.29s0,0,0,0l-19,67.41c.99.66,2,1.28,3.02,1.89l8.02-27.25c.09-.3.27-.56.51-.74l-8.13,28.61-4.39-1.25,20.24-71.23c.13.09.26.18.38.27Z"/>
  <path class="cls-2" d="M73.47,91.76h0c-3.12-2.19-5.91-4.82-8.3-7.79h0c2.38,2.97,5.18,5.6,8.29,7.79Z"/>
  <path class="cls-2" d="M73.47,91.77h0c-3.12-2.18-5.92-4.81-8.31-7.78v-.02c2.4,2.98,5.19,5.61,8.31,7.8Z"/>
  <path class="cls-1" d="M70.72,92.57l-19.01,67.46c-9.25-6.65-16.99-15.26-22.62-25.22l13.36-28.58,9.77,2.01c.59.12,1.19-.14,1.5-.65l11.96-19.58c1.56,1.65,3.24,3.17,5.04,4.56Z"/>
  <path class="cls-1" d="M77.52,20.58c-13.92,7.01-23.5,21.46-23.5,38.13,0,7.85,2.13,15.2,5.83,21.53l-10.82,17.87-9.89-2.03c-.64-.13-1.29.19-1.58.79l-13.26,27.91c-3.44-8.81-5.33-18.38-5.33-28.39,0-36.36,24.9-67.01,58.53-75.81Z"/>
  <path class="cls-3" d="M67.05,131.06l-.08.29c-.01-.1-.01-.19,0-.29h.08Z"/>
  <path class="cls-2" d="M66.97,131.35l-1.21,4.27h-2.58s.02-4.57.02-4.57h3.78c0,.11,0,.21,0,.3Z"/>
  <path class="cls-2" d="M66.43,81.92l-1.25,2.04c-.06-.08-.13-.16-.19-.24h0c-.75-.95-1.47-1.94-2.13-2.96h0c-.07-.11-.13-.22-.2-.32l.37-.6,3.4,2.09Z"/>
  <path class="cls-2" d="M65.18,83.96h0c-.06-.07-.13-.15-.19-.23h0c.06.07.13.15.19.23Z"/>
  <path class="cls-2" d="M65.17,83.97v.02c-.08-.08-.14-.16-.21-.24v-.02c.08.08.14.16.21.24Z"/>
  <path class="cls-3" d="M65.16,83.99l-13.31,21.72-10.13-2.43v-.09c.07,0,.13.01.2.03l9.89,2.03,11.89-19.48s0,0,0,0l.09-.14.21-.34h0s.97-1.54.97-1.54c.06.08.13.16.19.24Z"/>
  <path class="cls-2" d="M64.98,83.73v.02c-.77-.95-1.48-1.94-2.15-2.96l.02-.03c.67,1.02,1.38,2.01,2.13,2.97Z"/>
  <path class="cls-2" d="M64.97,83.75l-.97,1.55h0s-.21.34-.21.34l-.09.14s0,0,0,0l-11.89,19.48-9.89-2.03c-.06-.01-.13-.02-.19-.03-.58-.04-1.14.28-1.39.82l-12.91,27.62-.06-.03c-.55-1.09-1.07-2.19-1.57-3.3l13.88-29.21,9.78,2.01c.14.03.28.03.41.02l.1.02.02-.04c.4-.07.76-.31.97-.66l10.61-17.52h0s.03-.05.03-.05l.99-1.64h-.01s.26-.45.26-.45c.67,1.02,1.38,2.01,2.13,2.96Z"/>
  <path class="cls-2" d="M62.85,80.75h0c-.07-.09-.14-.2-.2-.3h0c.07.09.13.2.2.3Z"/>
  <path class="cls-2" d="M62.85,80.76l-.02.03c-.07-.1-.14-.21-.2-.31l.02-.03c.07.1.13.21.2.31Z"/>
  <path class="cls-3" d="M62.83,80.79l-.26.44h.01s-.99,1.65-.99,1.65l-.03.05h0s-10.61,17.52-10.61,17.52c-.22.36-.58.6-.97.66l12.65-20.63c.07.1.13.21.2.31Z"/>
  <path class="cls-2" d="M62.65,80.44h0c-3.37-5.27-5.56-11.39-6.16-17.96.61,6.57,2.8,12.68,6.17,17.96Z"/>
  <path class="cls-2" d="M56.44,61.92c.01.19.03.37.05.56-.02-.19-.03-.37-.05-.56Z"/>
  <path class="cls-2" d="M56.42,61.73c0,.06,0,.12.01.19,0-.06,0-.12-.01-.19Z"/>
  <path class="cls-2" d="M56.42,61.73c0-.11-.02-.23-.02-.34,0,.11.02.23.02.34Z"/>
  <path class="cls-2" d="M56.37,60.98c0,.12.01.24.02.36,0-.12-.01-.24-.02-.36Z"/>
  <path class="cls-2" d="M56.35,60.44c0,.05,0,.11,0,.16,0-.05,0-.11,0-.16Z"/>
  <path class="cls-2" d="M56.32,59.67c0,.06,0,.11,0,.17,0-.06,0-.11,0-.17Z"/>
  <path class="cls-3" d="M39.52,98.65l10.34,2.48c-.14.01-.28,0-.41-.02l-9.78-2.01-13.88,29.21c.5,1.11,1.02,2.21,1.57,3.3l-3.11-1.51,15.27-31.45Z"/>
  <path class="cls-3" d="M41.72,103.19v.09s-13.87,28.56-13.87,28.56l-.42-.21,12.91-27.62c.25-.54.81-.86,1.39-.82Z"/>
</svg>